<svg xmlns="http://www.w3.org/2000/svg" width="100" height="100" fill="none" viewBox="0 0 100 100">
  <path fill="#E3E3E3" d="M11.111 0H0v11.111h11.111V0Zm11.111 0h11.111v11.111h-11.11V0Zm33.334 0H44.444v11.111h11.112V0Zm11.11 0h11.112v11.111H66.667V0ZM88.89 0H100v11.111H88.889V0ZM0 22.222h11.111v11.111H0v-11.11Zm11.111 22.222H0v11.112h11.111V44.444ZM0 66.667h11.111v11.11H0v-11.11Zm11.111 22.222H0V100h11.111V88.889Zm11.111 0h11.111V100h-11.11V88.889Zm33.334 0H44.444V100h11.112V88.889Zm33.333-44.445H100v11.112H88.889V44.444ZM100 22.222H88.889v11.111H100v-11.11ZM66.667 77.778V66.667H100v11.11H88.889V88.89H77.778V100H66.667V77.778Zm22.222 11.11V100H100V88.889H88.889Z"/>
</svg>
