<svg xmlns="http://www.w3.org/2000/svg" width="115" height="100" fill="none" viewBox="0 0 115 100">
  <path fill="#E3E3E3" d="M74.912 66.638c4.594 0 8.323 3.732 8.323 8.33v9.53l-.038.513C81.723 95.135 72.638 100 57.394 100c-15.187 0-24.419-4.808-26.411-14.813l-.067-.7v-9.52c0-4.597 3.729-8.329 8.323-8.329h35.673Zm2.35-28.56h28.565c4.595 0 8.324 3.733 8.324 8.33v9.53l-.038.514c-1.475 10.124-10.559 14.989-25.803 14.989l-.799-.01a13.1 13.1 0 0 0-4.36-6.631 13.084 13.084 0 0 0-7.388-2.893l-.851-.029h-4.386a21.373 21.373 0 0 0 7.953-16.66c0-2.503-.428-4.902-1.218-7.14Zm-68.938 0H36.89a21.394 21.394 0 0 0-1.218 7.14c0 6.331 2.75 12.029 7.116 15.946l.837.714h-4.386c-6.002 0-11.063 4.046-12.604 9.568l-.157-.005C11.291 71.44 2.06 66.633.067 56.628l-.067-.7v-9.52c0-4.597 3.729-8.33 8.324-8.33Zm48.752-9.519a16.64 16.64 0 0 1 11.77 4.88 16.666 16.666 0 0 1 0 23.56 16.64 16.64 0 0 1-23.542 0 16.666 16.666 0 0 1 0-23.56 16.64 16.64 0 0 1 11.771-4.88ZM87.99 0a16.64 16.64 0 0 1 11.772 4.88 16.668 16.668 0 0 1 0 23.56 16.64 16.64 0 0 1-23.543 0 16.666 16.666 0 0 1 0-23.56A16.64 16.64 0 0 1 87.991 0ZM26.16 0a16.64 16.64 0 0 1 11.77 4.88 16.666 16.666 0 0 1 0 23.56 16.64 16.64 0 0 1-23.542 0 16.666 16.666 0 0 1 0-23.56A16.64 16.64 0 0 1 26.16 0Z"/>
</svg>
