<svg xmlns="http://www.w3.org/2000/svg" width="79" height="79" fill="none" viewBox="0 0 79 79">
  <g clip-path="url(#a)">
    <path fill="#293E81" d="M66.886 79H12.12A12.128 12.128 0 0 1 0 66.886V12.123A12.132 12.132 0 0 1 12.118 0h54.768A12.137 12.137 0 0 1 79.01 12.123v54.763A12.128 12.128 0 0 1 66.886 79ZM12.12 4.886a7.237 7.237 0 0 0-7.233 7.237v54.763a7.237 7.237 0 0 0 7.232 7.232h54.768a7.236 7.236 0 0 0 7.228-7.232V12.123a7.241 7.241 0 0 0-7.228-7.237H12.12Z"/>
    <path fill="#293E81" d="M25.022 10.906H13.108a3.344 3.344 0 0 0-3.354 3.33v50.527a3.345 3.345 0 0 0 3.335 3.33h11.933a3.344 3.344 0 0 0 3.312-3.33V14.236a3.344 3.344 0 0 0-3.312-3.33Zm-5.936 8.198a5.058 5.058 0 1 1 0 10.115 5.058 5.058 0 0 1 0-10.115Zm5.81 42.645H13.14a.697.697 0 0 1 0-1.394h11.757a.697.697 0 1 1 0 1.394Zm.043-2.885H13.187a.697.697 0 0 1 0-1.393h11.752a.696.696 0 1 1 0 1.394Zm-12.467-3.59a.692.692 0 0 1 .692-.692h11.751a.696.696 0 1 1 0 1.393H13.164a.692.692 0 0 1-.692-.701Zm12.49-2.188H13.21a.697.697 0 0 1 0-1.393h11.752a.697.697 0 0 1 0 1.393Zm20.493-42.18H33.54a3.344 3.344 0 0 0-3.35 3.33v50.527a3.344 3.344 0 0 0 3.331 3.33h11.933a3.344 3.344 0 0 0 3.335-3.33V14.236a3.344 3.344 0 0 0-3.335-3.33Zm-5.922 8.198a5.058 5.058 0 1 1 .009 10.117 5.058 5.058 0 0 1-.01-10.117Zm5.81 42.645h-11.75a.696.696 0 1 1 0-1.394h11.752a.697.697 0 1 1 0 1.394Zm.047-2.885H33.634a.697.697 0 0 1 0-1.393H45.39a.697.697 0 1 1 0 1.393Zm-12.467-3.59a.693.693 0 0 1 .688-.692h11.756a.697.697 0 0 1 0 1.393H33.61a.691.691 0 0 1-.688-.701Zm12.485-2.188H33.657a.698.698 0 0 1 0-1.393h11.752a.697.697 0 0 1 0 1.393Zm20.415-42.18H53.909a3.345 3.345 0 0 0-3.33 3.33v50.527a3.345 3.345 0 0 0 3.33 3.33h11.914a3.34 3.34 0 0 0 3.33-3.33V14.236a3.34 3.34 0 0 0-3.33-3.33Zm-5.904 8.198a5.058 5.058 0 1 1-.037 10.117 5.058 5.058 0 0 1 .037-10.117Zm5.81 42.645H53.956a.696.696 0 1 1 0-1.394H65.71a.697.697 0 1 1 0 1.394h.019Zm.043-2.885H54.02a.697.697 0 0 1 0-1.393h11.752a.697.697 0 0 1 0 1.393Zm-12.486-3.59a.692.692 0 0 1 .692-.692H65.73a.697.697 0 0 1 0 1.393H53.978a.693.693 0 0 1-.692-.701Zm12.49-2.188H54.025a.697.697 0 1 1 0-1.393h11.751a.697.697 0 0 1 0 1.393Z"/>
  </g>
  <defs>
    <clipPath id="a">
      <path fill="#fff" d="M0 0h79v79H0z"/>
    </clipPath>
  </defs>
</svg>
