<svg xmlns="http://www.w3.org/2000/svg" width="79" height="79" fill="none" viewBox="0 0 79 79">
  <g clip-path="url(#a)">
    <path fill="#293E81" d="M66.886 79H12.12A12.132 12.132 0 0 1 0 66.886V12.123A12.132 12.132 0 0 1 12.118 0h54.768a12.132 12.132 0 0 1 12.119 12.123v54.763A12.127 12.127 0 0 1 66.886 79ZM12.12 4.886a7.237 7.237 0 0 0-7.233 7.237v54.763a7.237 7.237 0 0 0 7.232 7.237h54.768a7.237 7.237 0 0 0 7.228-7.237V12.123a7.237 7.237 0 0 0-7.228-7.237H12.12Z"/>
    <path fill="#293E81" d="M40.322 40.048v-27.73a27.73 27.73 0 1 1-27.725 27.73h27.725Z"/>
    <path fill="#293E81" d="M38.678 38.408H10.953a27.725 27.725 0 0 1 27.725-27.725v27.725Z"/>
  </g>
  <defs>
    <clipPath id="a">
      <path fill="#fff" d="M0 0h79v79H0z"/>
    </clipPath>
  </defs>
</svg>
