<svg xmlns="http://www.w3.org/2000/svg" width="79" height="79" fill="none" viewBox="0 0 79 79">
  <g clip-path="url(#a)">
    <path fill="#293E81" d="M66.886 79H12.12A12.128 12.128 0 0 1 0 66.886V12.123A12.132 12.132 0 0 1 12.118 0h54.768A12.137 12.137 0 0 1 79.01 12.123v54.763A12.128 12.128 0 0 1 66.886 79ZM12.12 4.886a7.237 7.237 0 0 0-7.233 7.237v54.763a7.237 7.237 0 0 0 7.232 7.232h54.768a7.236 7.236 0 0 0 7.228-7.232V12.123a7.241 7.241 0 0 0-7.228-7.237H12.12Z"/>
    <path fill="#293E81" d="M28.496 61.294 9.773 68.145V17.706l18.723-6.85v50.438Zm1.644 0 18.72 6.851V17.706l-18.72-6.85v50.438Zm39.087 0-18.723 6.851V17.706l18.723-6.85v50.438Z"/>
  </g>
  <defs>
    <clipPath id="a">
      <path fill="#fff" d="M0 0h79v79H0z"/>
    </clipPath>
  </defs>
</svg>
