<svg xmlns="http://www.w3.org/2000/svg" width="32" height="32" fill="none" viewBox="0 0 32 32">
  <path fill="#293E81" d="M23.47 0c5.442 0 8.514 3.086 8.53 8.528v14.944C32 28.912 28.912 32 23.47 32H8.528C3.086 32 0 28.912 0 23.472V8.528C0 3.086 3.086 0 8.528 0H23.47ZM16.8 6.608a1.344 1.344 0 0 0-2.05 1.264v16.304c.082.688.656 1.2 1.328 1.2.69 0 1.264-.512 1.328-1.2V7.872a1.305 1.305 0 0 0-.606-1.264Zm-7.472 5.248a1.317 1.317 0 0 0-1.408 0 1.345 1.345 0 0 0-.624 1.264v11.056a1.32 1.32 0 0 0 1.326 1.2c.69 0 1.264-.512 1.328-1.2V13.12a1.347 1.347 0 0 0-.622-1.264Zm14.814 5.808a1.342 1.342 0 0 0-1.422 0 1.29 1.29 0 0 0-.608 1.264v5.248c.064.688.638 1.2 1.328 1.2.672 0 1.246-.512 1.328-1.2v-5.248a1.335 1.335 0 0 0-.626-1.264Z"/>
</svg>
