<svg xmlns="http://www.w3.org/2000/svg" width="32" height="32" fill="none" viewBox="0 0 32 32">
  <path fill="#293E81" d="M9.472 18.352c2.256 0 4.064 1.825 4.064 4.098v5.454c0 2.256-1.808 4.096-4.064 4.096H4.064C1.824 32 0 30.16 0 27.904V22.45c0-2.273 1.824-4.098 4.064-4.098h5.408Zm18.465 0c2.24 0 4.064 1.825 4.064 4.098v5.454C32 30.16 30.177 32 27.937 32h-5.409c-2.255 0-4.064-1.84-4.064-4.096V22.45c0-2.273 1.809-4.098 4.065-4.098h5.408ZM9.472 0c2.256 0 4.064 1.84 4.064 4.098v5.454c0 2.272-1.808 4.096-4.064 4.096H4.064C1.824 13.648 0 11.824 0 9.552V4.098C0 1.84 1.824 0 4.064 0h5.408Zm18.465 0C30.177 0 32 1.84 32 4.098v5.454c0 2.272-1.824 4.096-4.064 4.096h-5.409c-2.255 0-4.064-1.824-4.064-4.096V4.098C18.464 1.84 20.273 0 22.53 0h5.408Z"/>
</svg>
