<svg xmlns="http://www.w3.org/2000/svg" width="32" height="32" fill="none" viewBox="0 0 32 32">
  <path fill="#293E81" d="M22.944 0C28.366 0 32 3.808 32 9.472v13.072C32 28.192 28.366 32 22.944 32H9.072C3.648 32 0 28.192 0 22.544V9.472C0 3.808 3.648 0 9.072 0h13.872Zm-6.096 8.608c-.448-.448-1.248-.448-1.696 0l-6 6.032a1.207 1.207 0 0 0 0 1.696c.48.464 1.232.464 1.712 0l3.936-3.968v10.16c0 .672.544 1.2 1.2 1.2.672 0 1.2-.528 1.2-1.2v-10.16l3.952 3.968c.224.224.544.352.848.352.302 0 .608-.128.848-.352a1.207 1.207 0 0 0 0-1.696l-6-6.032Z"/>
</svg>
