<svg xmlns="http://www.w3.org/2000/svg" id="logo" fill="#000000" width="270" height="52" viewBox="0 0 270 52">
  <path fill="#293E81" d="M16.805 22.244H11.56V37.35h5.245c3.305 0 5.193-2.903 5.193-7.553 0-4.72-1.888-7.553-5.193-7.553Zm40.296.071c-4.017 0-5.193 1.888-5.193 5.192v2.28h10.433v-2.289c0-3.305-1.275-5.193-5.216-5.193"/>
  <path fill="#293E81" d="M61.086 11.58H0V48h73.879V24.368A12.79 12.79 0 0 0 61.086 11.58ZM16.848 44.738H4.102V14.823h12.746c8.054 0 12.614 6.137 12.614 14.965 0 8.827-4.56 14.95-12.614 14.95Zm23.825 0h-7.472V14.823h7.472v29.915Zm29.113 0h-7.473v-7.473H51.885v7.473h-7.473V27.456c0-8.054 5.193-12.614 12.685-12.614 7.491 0 12.684 4.56 12.684 12.614l.005 17.282ZM36.972 7.629a3.814 3.814 0 1 0 0-7.629 3.814 3.814 0 0 0 0 7.629ZM83.328 28h5.088c3.664 0 6.176-2.208 6.176-5.6 0-3.392-2.512-5.6-6.176-5.6h-5.088V28Zm2.592-2.128v-6.944h2.368c2.224 0 3.68 1.328 3.68 3.472s-1.456 3.472-3.68 3.472H85.92Zm18.339-9.072v6.8l-5.568-6.8h-2.144V28h2.56v-6.8l5.584 6.8h2.128V16.8h-2.56Zm10.986 2.08V16.8h-6.48v2.08h1.952v7.04h-1.952V28h6.48v-2.08h-1.936v-7.04h1.936Zm6.806-2.08h-4.848V28h2.592v-3.088h2.256c2.992 0 4.864-1.552 4.864-4.048 0-2.512-1.872-4.064-4.864-4.064Zm-.144 6h-2.112v-3.888h2.112c1.584 0 2.384.72 2.384 1.952 0 1.216-.8 1.936-2.384 1.936Zm16.779 5.2-2.512-3.6c1.456-.624 2.304-1.856 2.304-3.536 0-2.512-1.872-4.064-4.864-4.064h-4.848V28h2.592v-3.12h2.384l2.16 3.12h2.784Zm-2.832-7.136c0 1.216-.8 1.952-2.384 1.952h-2.112v-3.904h2.112c1.584 0 2.384.72 2.384 1.952Zm10.101 7.328c3.52 0 6.128-2.448 6.128-5.792s-2.608-5.792-6.128-5.792c-3.536 0-6.128 2.464-6.128 5.792s2.592 5.792 6.128 5.792Zm0-2.208c-2 0-3.504-1.456-3.504-3.584s1.504-3.584 3.504-3.584 3.504 1.456 3.504 3.584-1.504 3.584-3.504 3.584Zm12.924-9.184h-4.848V28h2.592v-3.088h2.256c2.992 0 4.864-1.552 4.864-4.048 0-2.512-1.872-4.064-4.864-4.064Zm-.144 6h-2.112v-3.888h2.112c1.584 0 2.384.72 2.384 1.952 0 1.216-.8 1.936-2.384 1.936Zm9.435 3.12v-2.592h5.2v-2.016h-5.2V18.88h5.888V16.8h-8.464V28h8.672v-2.08h-6.096ZM178.648 28h2.592v-9.088h3.584V16.8h-9.76v2.112h3.584V28Zm17.491 0-2.512-3.6c1.456-.624 2.304-1.856 2.304-3.536 0-2.512-1.872-4.064-4.864-4.064h-4.848V28h2.592v-3.12h2.384l2.16 3.12h2.784Zm-2.832-7.136c0 1.216-.8 1.952-2.384 1.952h-2.112v-3.904h2.112c1.584 0 2.384.72 2.384 1.952Zm10.101 7.328c3.52 0 6.128-2.448 6.128-5.792s-2.608-5.792-6.128-5.792c-3.536 0-6.128 2.464-6.128 5.792s2.592 5.792 6.128 5.792Zm0-2.208c-2 0-3.504-1.456-3.504-3.584s1.504-3.584 3.504-3.584 3.504 1.456 3.504 3.584-1.504 3.584-3.504 3.584Zm15.893-9.184-3.456 8-3.408-8h-2.8l4.832 11.2h2.56l4.848-11.2h-2.576Zm7.191 11.392c3.2 0 4.752-1.6 4.752-3.472 0-4.112-6.512-2.688-6.512-4.752 0-.704.592-1.28 2.128-1.28.992 0 2.064.288 3.104.88l.8-1.968c-1.04-.656-2.48-.992-3.888-.992-3.184 0-4.72 1.584-4.72 3.488 0 4.16 6.512 2.72 6.512 4.816 0 .688-.624 1.2-2.16 1.2-1.344 0-2.752-.48-3.696-1.168l-.88 1.952c.992.768 2.784 1.296 4.56 1.296ZM240.68 28h3.024l-4.912-6.208 4.64-4.992h-2.88l-4.96 5.232V16.8h-2.576V28h2.576v-2.832l1.504-1.568 3.584 4.4ZM89.104 38.88V36.8h-6.48v2.08h1.952v7.04h-1.952V48h6.48v-2.08h-1.936v-7.04h1.936Zm9.67-2.08v6.8l-5.568-6.8h-2.144V48h2.56v-6.8l5.584 6.8h2.128V36.8h-2.56Zm13.34 0-3.456 8-3.408-8h-2.8l4.832 11.2h2.56l4.848-11.2h-2.576Zm6.087 9.12v-2.592h5.2v-2.016h-5.2V38.88h5.888V36.8h-8.464V48h8.672v-2.08h-6.096Zm11.838 2.272c3.2 0 4.752-1.6 4.752-3.472 0-4.112-6.512-2.688-6.512-4.752 0-.704.592-1.28 2.128-1.28.992 0 2.064.288 3.104.88l.8-1.968c-1.04-.656-2.48-.992-3.888-.992-3.184 0-4.72 1.584-4.72 3.488 0 4.16 6.512 2.72 6.512 4.816 0 .688-.624 1.2-2.16 1.2-1.344 0-2.752-.48-3.696-1.168l-.88 1.952c.992.768 2.784 1.296 4.56 1.296Zm8.687-.192h2.592v-9.088h3.584V36.8h-9.76v2.112h3.584V48Zm20.195 0-.032-11.2h-2.128l-4.128 6.96-4.192-6.96h-2.144V48h2.432v-6.576l3.28 5.392h1.168l3.296-5.536.016 6.72h2.432Zm5.233-2.08v-2.592h5.2v-2.016h-5.2V38.88h5.888V36.8h-8.464V48h8.672v-2.08h-6.096Zm15.87-9.12v6.8l-5.568-6.8h-2.144V48h2.56v-6.8l5.584 6.8h2.128V36.8h-2.56Zm7.53 11.2h2.592v-9.088h3.584V36.8h-9.76v2.112h3.584V48Zm17.142-11.392c-3.072 0-5.136 1.856-5.136 5.264V48h2.56v-2.688h5.12V48h2.592v-6.128c0-3.408-2.064-5.264-5.136-5.264Zm-2.576 6.624v-1.6c0-1.904 1.008-2.816 2.56-2.816 1.536 0 2.56.912 2.56 2.816v1.6h-5.12Zm17.839 2.272c-.656.352-1.312.48-2.016.48-2.144 0-3.632-1.488-3.632-3.584 0-2.128 1.488-3.584 3.664-3.584 1.136 0 2.08.4 2.896 1.264l1.664-1.536c-1.088-1.264-2.72-1.936-4.688-1.936-3.568 0-6.16 2.416-6.16 5.792s2.592 5.792 6.112 5.792c1.6 0 3.296-.496 4.528-1.424v-4.544h-2.368v3.28Zm7.351.416v-2.592h5.2v-2.016h-5.2V38.88h5.888V36.8h-8.464V48h8.672v-2.08h-6.096Zm14.095-9.312c-1.472 0-2.656.512-3.424 1.552V36.8h-2.512V48h2.592v-6.304c0-1.968 1.104-2.88 2.608-2.88 1.456 0 2.384.864 2.384 2.704V48h2.592v-6.56c0-3.12-1.584-4.832-4.24-4.832Zm12.158 11.584c1.952 0 3.568-.704 4.624-2l-1.664-1.536c-.752.88-1.696 1.328-2.816 1.328-2.096 0-3.584-1.472-3.584-3.584s1.488-3.584 3.584-3.584c1.12 0 2.064.448 2.816 1.312l1.664-1.536c-1.056-1.28-2.672-1.984-4.608-1.984-3.488 0-6.08 2.416-6.08 5.792s2.592 5.792 6.064 5.792ZM269.556 36.8h-2.544l-2.992 4.976-2.992-4.976h-2.752l4.336 7.2v4h2.592v-3.968l4.352-7.232Z"/>
</svg>
