<svg xmlns="http://www.w3.org/2000/svg" width="32" height="32" fill="none" viewBox="0 0 32 32">
  <path fill="#293E81" d="M22.944 0C28.368 0 32 3.808 32 9.472v13.072C32 28.192 28.368 32 22.944 32H9.072C3.648 32 0 28.192 0 22.544V9.472C0 3.808 3.648 0 9.072 0h13.872Zm.224 14.082c-1.056 0-1.92.862-1.92 1.918s.864 1.92 1.92 1.92A1.912 1.912 0 0 0 25.072 16a1.91 1.91 0 0 0-1.904-1.918Zm-7.168 0c-1.056 0-1.92.862-1.92 1.918s.864 1.92 1.92 1.92 1.92-.864 1.92-1.92A1.924 1.924 0 0 0 16 14.082Zm-7.168 0c-1.056 0-1.92.862-1.92 1.918s.864 1.92 1.92 1.92 1.92-.864 1.92-1.92a1.924 1.924 0 0 0-1.92-1.918Z"/>
</svg>
