<svg xmlns="http://www.w3.org/2000/svg" width="29" height="32" fill="none" viewBox="0 0 29 32">
  <path fill="#293E81" d="M21.106 0C26.048 0 28.8 2.848 28.8 7.728v16.528c0 4.96-2.752 7.744-7.694 7.744H7.696C2.832 32 0 29.216 0 24.256V7.728C0 2.848 2.832 0 7.696 0h13.41ZM8.128 21.984a1.272 1.272 0 0 0-1.2 1.936c.256.4.72.64 1.2.576h12.544a1.252 1.252 0 0 0 1.12-1.248c0-.656-.482-1.2-1.12-1.264H8.128Zm12.544-7.298H8.128a1.25 1.25 0 0 0 0 2.498h12.544a1.25 1.25 0 0 0 0-2.498ZM12.91 7.44H8.128v.016a1.249 1.249 0 0 0 0 2.496h4.782c.69 0 1.25-.56 1.25-1.266a1.25 1.25 0 0 0-1.25-1.246Z"/>
</svg>
